PathFileType	4	(X/Y/Z)	C:\Users\Basilio\Documents\Thesis Gigler\squatting_fais\c3dfiles\044\SJ_pre5\markers_experimental.trc
DataRate	CameraRate	NumFrames	NumMarkers	Units	OrigDataRate	OrigDataStartFrame	OrigNumFrames
200.000000	200.000000	4	61	mm	200.000000	470	1880
Frame#	Time	FHD			LBHD			RBHD			C7			T10			CLAV			LSHO			LUUPA			LMUPA			LDUPA			LLEP			LMEP			LRAD			LUL			LRFIN			RSHO			RUPA1			RMUPA			RDUPA			RLEP			RMEP			RRAD			RUL			RUFIN			LASI			RASI			USACR			LSACR			RSACR			LTHI1			LTHI2			LTHI3			LTHI4			LLFC			LMFC			LTIB1			LTIB2			LTIB3			LTIB4			LLMAL			LMMAL			LHEE			LMT1			LMT2			LMT5			RTHI			RTHI2			RTHI3			RTHI4			RLFC			RMFC			RTIB1			RTIB2			RTIB3			RTIB4			RLMAL			RMMAL			RHEE			RMT1			RMT2			RMT5			
		X1	Y1	Z1	X2	Y2	Z2	X3	Y3	Z3	X4	Y4	Z4	X5	Y5	Z5	X6	Y6	Z6	X7	Y7	Z7	X8	Y8	Z8	X9	Y9	Z9	X10	Y10	Z10	X11	Y11	Z11	X12	Y12	Z12	X13	Y13	Z13	X14	Y14	Z14	X15	Y15	Z15	X16	Y16	Z16	X17	Y17	Z17	X18	Y18	Z18	X19	Y19	Z19	X20	Y20	Z20	X21	Y21	Z21	X22	Y22	Z22	X23	Y23	Z23	X24	Y24	Z24	X25	Y25	Z25	X26	Y26	Z26	X27	Y27	Z27	X28	Y28	Z28	X29	Y29	Z29	X30	Y30	Z30	X31	Y31	Z31	X32	Y32	Z32	X33	Y33	Z33	X34	Y34	Z34	X35	Y35	Z35	X36	Y36	Z36	X37	Y37	Z37	X38	Y38	Z38	X39	Y39	Z39	X40	Y40	Z40	X41	Y41	Z41	X42	Y42	Z42	X43	Y43	Z43	X44	Y44	Z44	X45	Y45	Z45	X46	Y46	Z46	X47	Y47	Z47	X48	Y48	Z48	X49	Y49	Z49	X50	Y50	Z50	X51	Y51	Z51	X52	Y52	Z52	X53	Y53	Z53	X54	Y54	Z54	X55	Y55	Z55	X56	Y56	Z56	X57	Y57	Z57	X58	Y58	Z58	X59	Y59	Z59	X60	Y60	Z60	X61	Y61	Z61	

471	2.35	7.321137428283693	1276.284301757813	-898.5382080078127	-118.9531784057617	1244.147827148438	-988.1263427734377	-176.6576690673828	1228.347534179688	-832.6961669921877	-227.5479888916016	1125.761596679688	-911.4624633789065	-433.7970275878907	910.8218383789065	-903.0567626953127	-140.1818084716797	1007.320922851563	-911.3493652343752	-150.0463562011719	1060.580688476563	-1087.5283203125	-307.8537597656251	973.8454589843752	-1241.72216796875	-314.6363525390626	926.7615966796877	-1229.534057617188	-357.8728637695313	936.190368652344	-1271.460693359375	-399.0215454101564	895.0620727539065	-1284.202270507813	-454.0704040527345	942.5571899414065	-1239.400634765625	-536.3478393554689	704.3527221679689	-1125.47607421875	-499.3602905273439	667.5316772460939	-1171.138549804688	-481.5739135742189	701.9647827148439	-1085.9541015625	-157.4159393310547	1057.402709960938	-725.5823974609376	-283.4369201660157	954.946228027344	-565.3688354492189	-287.4699707031251	906.1273193359377	-579.2023925781251	-323.8746032714844	908.1762695312502	-531.3517456054689	-359.2797241210938	857.837585449219	-518.9384765625001	-429.3706665039064	902.8959960937502	-544.3479003906251	-516.8712768554689	673.5103759765626	-664.3852539062501	-469.9942016601564	635.0003051757814	-623.3863525390626	-458.500701904297	679.8961791992189	-712.2305297851564	-423.1372985839845	671.3460083007814	-1025.844482421875	-414.1649780273439	656.4485473632814	-797.093933105469	-536.6330566406251	785.1524047851565	-894.115905761719	-564.4333496093751	764.4898681640626	-919.5087890625002	-558.0859985351564	763.5166625976564	-863.492370605469	-442.600311279297	560.5062255859376	-1129.6455078125	-359.5485229492188	549.7287597656251	-1150.517944335938	-333.0465393066407	587.1887817382814	-1138.701904296875	-329.6799011230469	497.5604858398439	-1157.656005859375	-204.8301239013672	420.9891357421876	-1167.547729492188	-190.0620727539063	408.143035888672	-1054.298706054688	-251.7629852294922	260.4134826660157	-1088.88037109375	-303.9717407226563	234.9940338134766	-1157.414428710938	-278.6529235839844	218.0968627929688	-1121.437377929688	-335.5957031250001	164.9263153076172	-1086.414428710938	-445.7269897460939	93.91902160644533	-1129.889770507813	-421.7813110351564	99.77362060546878	-1044.62890625	-511.9103088378907	49.80429458618165	-1080.786743164063	-295.0643005371094	60.87103652954103	-1075.737060546875	-299.6521606445313	62.99095535278322	-1122.331176757813	-334.7439575195313	39.37553024291993	-1167.401245117188	-385.9276733398439	511.1566162109376	-694.6110839843751	-317.9701843261719	520.3330688476564	-688.5836181640626	-301.6467895507813	546.1603393554689	-695.7743530273439	-262.6961975097657	454.982391357422	-694.2760620117189	-197.9214630126954	397.2056884765626	-699.7140502929689	-195.0895538330079	389.8424072265626	-818.8223266601565	-215.9362945556641	269.5431823730469	-730.9315795898439	-317.5715942382813	257.9811706542969	-683.9680175781251	-288.6753540039063	227.2069396972657	-702.6245727539064	-315.3309936523438	183.881332397461	-730.8199462890626	-463.2894287109376	96.98661804199222	-712.7692260742189	-435.9607238769532	96.33386993408206	-798.1977539062502	-524.6823730468751	52.14260482788087	-763.1652832031251	-310.4660949707032	61.7122039794922	-754.4475097656251	-310.0165100097657	60.92306900024415	-717.7127685546876	-351.8026123046876	41.80933380126954	-668.3429565429689	
472	2.355	7.330533504486086	1276.216674804688	-898.6118774414065	-119.0369949340821	1244.029296875	-988.206237792969	-176.6624908447266	1228.339599609375	-832.763610839844	-227.5623626708985	1125.719604492188	-911.5532226562502	-433.793182373047	910.8255004882815	-903.1187744140627	-140.1329803466797	1007.430297851563	-911.3899536132815	-150.0470123291016	1060.495849609375	-1087.59375	-307.7896423339844	973.7829589843752	-1241.819702148438	-314.7885742187501	926.7002563476565	-1229.542236328125	-357.9043884277344	936.1448974609377	-1271.522338867188	-399.0576477050782	895.0025634765627	-1284.257934570313	-453.9730224609376	942.5352783203127	-1239.482543945313	-536.5040893554689	704.4284057617189	-1125.512573242188	-499.4237060546876	667.4843139648439	-1171.188720703125	-481.5827026367189	701.8921508789064	-1085.963745117188	-157.3903350830078	1057.39599609375	-725.6425781250001	-283.4438781738282	954.9193115234377	-565.3932495117189	-287.4650573730469	906.0670166015627	-579.2905273437501	-323.8811645507813	908.1653442382815	-531.4146118164064	-359.2552185058594	857.858093261719	-518.9787597656251	-429.3589477539064	902.8743286132815	-544.4091186523439	-516.8933715820314	673.5620727539064	-664.4537963867189	-469.9993896484376	634.8968505859376	-623.3937377929689	-458.4727783203126	679.8173217773439	-712.2139282226564	-423.0686035156251	671.3757324218751	-1025.952514648438	-414.2141723632814	656.2556152343751	-797.2093505859377	-536.6054077148439	785.0054321289065	-894.131530761719	-564.4465942382814	764.3848266601564	-919.554382324219	-558.1594238281251	763.4659423828126	-863.5437011718752	-442.5969848632814	560.4485473632814	-1129.7138671875	-359.5415344238282	549.6398315429689	-1150.536743164063	-333.0731201171876	587.1135253906251	-1138.721557617188	-329.6319885253907	497.5891113281251	-1157.670166015625	-204.7414245605469	420.9943237304689	-1167.562744140625	-190.047103881836	408.042694091797	-1054.359741210938	-252.0548400878907	261.3384704589844	-1088.929565429688	-303.9991760253907	234.9856872558594	-1157.429077148438	-278.7250976562501	218.0010528564454	-1121.399291992188	-335.5972595214844	164.943115234375	-1086.417358398438	-445.6915283203126	93.91326904296876	-1129.882080078125	-421.8150329589845	99.73972320556643	-1044.609375	-511.9431762695314	49.78117752075197	-1080.789794921875	-295.1284484863282	60.90462112426759	-1075.777221679688	-299.6602172851563	63.0688934326172	-1122.35791015625	-334.7077941894532	39.35435104370118	-1167.447143554688	-385.9068603515626	510.9908447265626	-694.5776977539064	-317.9980163574219	520.2733764648439	-688.6394042968751	-301.6470031738282	546.1725463867189	-695.8868408203126	-262.6978149414063	454.9721984863282	-694.2759399414064	-197.8920135498047	397.1343078613282	-699.7352905273439	-195.1645507812501	389.8017883300782	-818.8083496093752	-215.9538726806641	269.5192871093751	-730.8966064453126	-317.5859680175782	257.9758300781251	-683.9782104492189	-288.6275329589844	227.1482086181641	-702.6318969726564	-315.3251953125001	183.7953186035157	-730.7911987304689	-463.2781982421876	96.96418762207034	-712.7902221679689	-435.9471435546876	96.31912231445315	-798.2195434570315	-524.6918945312501	52.17026519775392	-763.1721191406251	-310.5086669921876	61.67846679687501	-754.5216064453126	-309.7209472656251	60.51477050781251	-717.1995239257814	-351.9313964843751	41.58111190795899	-668.4456176757814	
473	2.36	7.280196189880373	1276.188598632813	-898.7264404296877	-119.2438354492188	1243.841796875	-988.2439575195315	-176.6966400146485	1228.32373046875	-832.8494262695315	-227.5717926025391	1125.669921875	-911.581970214844	-433.766326904297	910.770935058594	-903.176452636719	-140.198471069336	1007.181274414063	-911.3848266601565	-150.0642547607422	1060.427856445313	-1087.635375976563	-307.8716125488282	973.5970458984377	-1241.849243164063	-314.7300720214844	926.6551513671877	-1229.64599609375	-357.8874206542969	936.1036376953127	-1271.57666015625	-399.0942993164064	894.8498535156252	-1284.341796875	-453.9962768554689	942.333190917969	-1239.500854492188	-536.4418945312501	704.2957763671876	-1125.579345703125	-499.4378967285157	667.3831176757814	-1171.211791992188	-481.496307373047	701.8446044921876	-1086.067260742188	-157.4505920410157	1057.350341796875	-725.7263793945314	-283.4811706542969	954.883483886719	-565.4970092773439	-287.5993347167969	906.1290283203127	-579.4449462890626	-323.8992309570313	908.188415527344	-531.4611206054689	-359.3533935546876	857.7603149414065	-518.9793701171876	-429.3299255371095	902.8588867187502	-544.4638061523439	-516.8450927734376	673.4749755859376	-664.4475097656251	-469.9847717285157	634.9049072265626	-623.4311523437501	-458.4330444335939	679.7705688476564	-712.2532958984376	-423.2066345214845	671.2823486328126	-1025.9267578125	-414.2872924804689	656.1863403320314	-797.239196777344	-536.6516113281251	784.968933105469	-894.1707763671877	-564.4346313476564	764.3760986328126	-919.5650634765627	-558.1651611328126	763.4652709960939	-863.5738525390627	-442.487274169922	560.4365844726564	-1129.76220703125	-359.5469970703126	549.6419067382814	-1150.582763671875	-333.0679016113282	587.1619873046876	-1138.770141601563	-329.6047363281251	497.5585937500001	-1157.7236328125	-204.6576538085938	420.8074340820314	-1167.577392578125	-189.9886627197266	408.0236816406251	-1054.340454101563	-251.9340057373047	260.9448242187501	-1088.914794921875	-303.7195129394532	235.4434967041016	-1157.365966796875	-278.6437683105469	218.0467681884766	-1121.4365234375	-335.6041564941407	164.9545593261719	-1086.451293945313	-445.7117004394532	93.91696929931642	-1129.886840820313	-421.8007202148439	99.73688507080081	-1044.558715820313	-511.9171142578126	49.78959274291994	-1080.791259765625	-295.0520629882813	60.90949630737306	-1075.720336914063	-299.2956848144532	62.53136444091798	-1122.504028320313	-334.7417907714844	39.36954879760743	-1167.397583007813	-385.9054260253907	510.977020263672	-694.6422119140626	-317.9726562500001	520.2338867187501	-688.6732788085939	-301.6488952636719	546.1314697265626	-695.8668823242189	-262.6297607421876	454.9620361328126	-694.3203125000001	-197.8404388427735	397.1146240234376	-699.7953491210939	-194.9948883056641	389.840057373047	-818.9262695312502	-215.9333801269532	269.5044860839844	-730.9560546875001	-317.5560302734376	257.9529113769532	-684.0195312500001	-288.5650329589844	227.128646850586	-702.6574707031251	-315.3350830078126	183.7342224121094	-730.7960205078126	-463.3130187988282	96.99792480468753	-712.7797241210939	-435.9273681640626	96.32060241699222	-798.2131958007815	-524.7440185546876	52.2442092895508	-763.1922607421876	-310.4709777832032	61.70619583129884	-754.4934082031251	-309.7648620605469	60.47960662841798	-717.2141113281251	-351.8790588378907	41.55789947509766	-668.4329223632814	
474	2.365	7.274373531341555	1276.180419921875	-898.8345947265627	-119.3254013061524	1243.739990234375	-988.3249511718752	-176.6992950439453	1228.311401367188	-832.9180297851565	-227.6440582275391	1125.789672851563	-911.641540527344	-433.8117675781251	910.7369384765627	-903.2115478515627	-140.216064453125	1007.168823242188	-911.4859008789065	-150.0542449951172	1060.3603515625	-1087.736206054688	-307.8680114746094	973.563171386719	-1241.872802734375	-314.7618713378907	926.5616455078127	-1229.701782226563	-357.8798217773438	936.0359497070315	-1271.680786132813	-399.0947875976564	894.7810058593752	-1284.351806640625	-454.0116271972657	942.3280029296877	-1239.554809570313	-536.3445434570314	704.1766357421876	-1125.637451171875	-499.4196166992189	667.3119506835939	-1171.303100585938	-481.5651855468751	701.8081665039064	-1086.093017578125	-157.4469757080078	1057.368774414063	-725.7429809570314	-283.5079956054688	954.8003540039065	-565.5579223632814	-287.4980468750001	906.029479980469	-579.4204711914064	-323.9440002441407	908.229675292969	-531.5681152343751	-359.3190307617188	857.7513427734377	-519.0567016601564	-429.3619079589845	902.7775878906252	-544.5003051757814	-516.8452758789064	673.4703979492189	-664.4505615234376	-469.9592590332032	634.8410644531251	-623.5529785156251	-458.4102478027345	679.7233886718751	-712.2844848632814	-423.1155700683595	671.2648925781251	-1026.042846679688	-414.3038024902345	655.9998168945314	-797.3607177734377	-536.6271362304689	784.900817871094	-894.212341308594	-564.4400634765626	764.3193359375001	-919.5787353515627	-558.1705932617189	763.3353881835939	-863.6347656250002	-442.4769287109376	560.4009399414064	-1129.763427734375	-359.6155090332032	549.5458374023439	-1150.602172851563	-333.0269775390626	587.0982055664064	-1138.80419921875	-329.5807495117188	497.6529235839845	-1157.6650390625	-204.9254913330079	420.9350891113282	-1167.570068359375	-189.9197082519532	408.051239013672	-1054.309326171875	-251.9352111816407	260.9453735351563	-1088.91845703125	-303.6877441406251	235.4268035888672	-1157.344360351563	-278.7841491699219	218.2408142089844	-1121.426513671875	-335.5990295410157	164.9201965332032	-1086.455688476563	-445.7258605957032	93.94140625000001	-1129.843505859375	-421.8003234863282	99.83440399169925	-1044.608764648438	-511.8968200683595	49.83416748046876	-1080.80517578125	-295.0613708496094	60.93796539306642	-1075.716552734375	-299.3373413085938	62.47687149047853	-1122.490356445313	-334.6738281250001	39.32563781738282	-1167.390869140625	-385.9040527343751	510.9315185546876	-694.6821289062501	-318.0209655761719	520.1815185546876	-688.7053222656251	-301.6098022460938	546.1161499023439	-695.9240112304689	-262.6281127929688	454.9398498535157	-694.3461914062501	-197.8451843261719	397.1030883789064	-699.8364868164064	-195.0765838623047	389.7011108398439	-818.9328613281252	-215.9378356933594	269.5012512207032	-730.9694824218751	-317.5681457519532	257.9603271484376	-684.0626831054689	-288.5999450683594	227.1567687988282	-702.7550048828126	-315.3385009765626	183.7980041503907	-730.8642578125001	-463.2756958007814	96.97505950927737	-712.7381591796876	-435.9639282226564	96.32239532470706	-798.173034667969	-524.7026367187501	52.1895217895508	-763.1967773437501	-310.4987182617188	61.65693664550783	-754.5505371093751	-309.9542541503907	61.0066375732422	-717.6867675781251	-351.7633056640626	41.7882194519043	-668.2918090820314	
